<svg width="46" height="50" viewBox="0 0 46 50" fill="none" xmlns="http://www.w3.org/2000/svg">
<path d="M38 5H35.5V2.5C35.5 1.83696 35.2366 1.20107 34.7678 0.732233C34.2989 0.263392 33.663 0 33 0C32.337 0 31.7011 0.263392 31.2322 0.732233C30.7634 1.20107 30.5 1.83696 30.5 2.5V5H15.5V2.5C15.5 1.83696 15.2366 1.20107 14.7678 0.732233C14.2989 0.263392 13.663 0 13 0C12.337 0 11.7011 0.263392 11.2322 0.732233C10.7634 1.20107 10.5 1.83696 10.5 2.5V5H8C6.01088 5 4.10322 5.79018 2.6967 7.1967C1.29018 8.60322 0.5 10.5109 0.5 12.5V42.5C0.5 44.4891 1.29018 46.3968 2.6967 47.8033C4.10322 49.2098 6.01088 50 8 50H38C39.9891 50 41.8968 49.2098 43.3033 47.8033C44.7098 46.3968 45.5 44.4891 45.5 42.5V12.5C45.5 10.5109 44.7098 8.60322 43.3033 7.1967C41.8968 5.79018 39.9891 5 38 5ZM13 37.5C12.5055 37.5 12.0222 37.3534 11.6111 37.0787C11.2 36.804 10.8795 36.4135 10.6903 35.9567C10.5011 35.4999 10.4516 34.9972 10.548 34.5123C10.6445 34.0273 10.8826 33.5819 11.2322 33.2322C11.5819 32.8826 12.0273 32.6445 12.5123 32.548C12.9972 32.4516 13.4999 32.5011 13.9567 32.6903C14.4135 32.8795 14.804 33.2 15.0787 33.6111C15.3534 34.0222 15.5 34.5055 15.5 35C15.5 35.663 15.2366 36.2989 14.7678 36.7678C14.2989 37.2366 13.663 37.5 13 37.5ZM33 37.5H23C22.337 37.5 21.7011 37.2366 21.2322 36.7678C20.7634 36.2989 20.5 35.663 20.5 35C20.5 34.337 20.7634 33.7011 21.2322 33.2322C21.7011 32.7634 22.337 32.5 23 32.5H33C33.663 32.5 34.2989 32.7634 34.7678 33.2322C35.2366 33.7011 35.5 34.337 35.5 35C35.5 35.663 35.2366 36.2989 34.7678 36.7678C34.2989 37.2366 33.663 37.5 33 37.5ZM40.5 22.5H5.5V12.5C5.5 11.837 5.76339 11.2011 6.23223 10.7322C6.70107 10.2634 7.33696 10 8 10H10.5V12.5C10.5 13.163 10.7634 13.7989 11.2322 14.2678C11.7011 14.7366 12.337 15 13 15C13.663 15 14.2989 14.7366 14.7678 14.2678C15.2366 13.7989 15.5 13.163 15.5 12.5V10H30.5V12.5C30.5 13.163 30.7634 13.7989 31.2322 14.2678C31.7011 14.7366 32.337 15 33 15C33.663 15 34.2989 14.7366 34.7678 14.2678C35.2366 13.7989 35.5 13.163 35.5 12.5V10H38C38.663 10 39.2989 10.2634 39.7678 10.7322C40.2366 11.2011 40.5 11.837 40.5 12.5V22.5Z" fill="#181A18"/>
</svg>
